name E:\Dropbox\SEL\BOX\Experiment\240124_SUB1_PJH\c3d\XYZ\UpDown_TrcMot\15_10_trial1_U1_ExtLoadAPP3.mot
datacolumns 37
datarows 13
range 3.225 3.237
endheader

time	    ground_force1_vx	    ground_force1_vy	    ground_force1_vz	    ground_force1_px	    ground_force1_py	    ground_force1_pz	    ground_torque1_x	    ground_torque1_y	    ground_torque1_z	    ground_force2_vx	    ground_force2_vy	    ground_force2_vz	    ground_force2_px	    ground_force2_py	    ground_force2_pz	    ground_torque2_x	    ground_torque2_y	    ground_torque2_z	      hand_force3_vx	      hand_force3_vy	      hand_force3_vz	      hand_force3_px	      hand_force3_py	      hand_force3_pz	      hand_torque3_x	      hand_torque3_y	      hand_torque3_z	      hand_force4_vx	      hand_force4_vy	      hand_force4_vz	      hand_force4_px	      hand_force4_py	      hand_force4_pz	      hand_torque4_x	      hand_torque4_y	      hand_torque4_z	
3.225	         32.32609139	        350.84883188	        -18.08141045	          0.23136613	          0.00000000	          0.28956351	          0.00000000	         -4.17944602	          0.00000000	        -42.82404343	        439.58141793	        -13.71968084	          0.57950143	          0.00000000	          0.27428595	          0.00000000	          5.06347755	          0.00000000	          0.00000000	          0.00000000	          0.00000000	          0.16293086	          0.87588527	         -0.02341221	          0.00000000	          0.00000000	          0.00000000	          0.00000000	          0.00000000	          0.00000000	          0.66172526	          0.89859945	         -0.01013613	          0.00000000	          0.00000000	          0.00000000	
3.226	         32.35255064	        351.14314453	        -18.10051255	          0.23138482	          0.00000000	          0.28968628	          0.00000000	         -4.18476497	          0.00000000	        -42.82259180	        439.58752093	        -13.80331557	          0.57948833	          0.00000000	          0.27438729	          0.00000000	          5.06446501	          0.00000000	          0.00000000	          0.00000000	          0.00000000	          0.16299687	          0.87674251	         -0.02359454	          0.00000000	          0.00000000	          0.00000000	          0.00000000	          0.00000000	          0.00000000	          0.66175085	          0.89954821	         -0.01036491	          0.00000000	          0.00000000	          0.00000000	
3.227	         32.38066506	        351.44441592	        -18.11993874	          0.23140313	          0.00000000	          0.28980737	          0.00000000	         -4.19019274	          0.00000000	        -42.82092765	        439.58909328	        -13.88509187	          0.57947568	          0.00000000	          0.27448492	          0.00000000	          5.06551635	          0.00000000	          0.00000000	          0.00000000	          0.00000000	          0.16306325	          0.87759710	         -0.02377818	          0.00000000	          0.00000000	          0.00000000	          0.00000000	          0.00000000	          0.00000000	          0.66177640	          0.90049513	         -0.01059592	          0.00000000	          0.00000000	          0.00000000	
3.228	         32.41042066	        351.75235236	        -18.13966278	          0.23142106	          0.00000000	          0.28992678	          0.00000000	         -4.19572609	          0.00000000	        -42.81901321	        439.58648822	        -13.96492175	          0.57946347	          0.00000000	          0.27457886	          0.00000000	          5.06663995	          0.00000000	          0.00000000	          0.00000000	          0.00000000	          0.16312995	          0.87844908	         -0.02396313	          0.00000000	          0.00000000	          0.00000000	          0.00000000	          0.00000000	          0.00000000	          0.66180193	          0.90144016	         -0.01082917	          0.00000000	          0.00000000	          0.00000000	
3.229	         32.44179764	        352.06663881	        -18.15965877	          0.23143862	          0.00000000	          0.29004451	          0.00000000	         -4.20136159	          0.00000000	        -42.81680999	        439.58005387	        -14.04272239	          0.57945170	          0.00000000	          0.27466912	          0.00000000	          5.06784393	          0.00000000	          0.00000000	          0.00000000	          0.00000000	          0.16319689	          0.87929852	         -0.02414941	          0.00000000	          0.00000000	          0.00000000	          0.00000000	          0.00000000	          0.00000000	          0.66182746	          0.90238326	         -0.01106466	          0.00000000	          0.00000000	          0.00000000	
3.23	         32.47477048	        352.38693985	        -18.17990119	          0.23145582	          0.00000000	          0.29016053	          0.00000000	         -4.20709558	          0.00000000	        -42.81427894	        439.57013151	        -14.11841621	          0.57944035	          0.00000000	          0.27475573	          0.00000000	          5.06913619	          0.00000000	          0.00000000	          0.00000000	          0.00000000	          0.16326401	          0.88014546	         -0.02433703	          0.00000000	          0.00000000	          0.00000000	          0.00000000	          0.00000000	          0.00000000	          0.66185300	          0.90332439	         -0.01130238	          0.00000000	          0.00000000	          0.00000000	
3.231	         32.50930788	        352.71290072	        -18.20036483	          0.23147264	          0.00000000	          0.29027483	          0.00000000	         -4.21292422	          0.00000000	        -42.81138062	        439.55705399	        -14.19193086	          0.57942942	          0.00000000	          0.27483870	          0.00000000	          5.07052433	          0.00000000	          0.00000000	          0.00000000	          0.00000000	          0.16333125	          0.88098996	         -0.02452598	          0.00000000	          0.00000000	          0.00000000	          0.00000000	          0.00000000	          0.00000000	          0.66187856	          0.90426351	         -0.01154233	          0.00000000	          0.00000000	          0.00000000	
3.232	         32.54537283	        353.04414843	        -18.22102482	          0.23148911	          0.00000000	          0.29038739	          0.00000000	         -4.21884348	          0.00000000	        -42.80807530	        439.54114422	        -14.26319925	          0.57941891	          0.00000000	          0.27491807	          0.00000000	          5.07201566	          0.00000000	          0.00000000	          0.00000000	          0.00000000	          0.16339853	          0.88183209	         -0.02471628	          0.00000000	          0.00000000	          0.00000000	          0.00000000	          0.00000000	          0.00000000	          0.66190416	          0.90520059	         -0.01178451	          0.00000000	          0.00000000	          0.00000000	
3.233	         32.58292271	        353.38029302	        -18.24185658	          0.23150522	          0.00000000	          0.29049820	          0.00000000	         -4.22484918	          0.00000000	        -42.80432319	        439.52271372	        -14.33215963	          0.57940881	          0.00000000	          0.27499385	          0.00000000	          5.07361716	          0.00000000	          0.00000000	          0.00000000	          0.00000000	          0.16346578	          0.88267190	         -0.02490794	          0.00000000	          0.00000000	          0.00000000	          0.00000000	          0.00000000	          0.00000000	          0.66192982	          0.90613558	         -0.01202891	          0.00000000	          0.00000000	          0.00000000	
3.234	         32.62190936	        353.72092887	        -18.26283582	          0.23152097	          0.00000000	          0.29060723	          0.00000000	         -4.23093698	          0.00000000	        -42.80008451	        439.50206138	        -14.39875558	          0.57939912	          0.00000000	          0.27506610	          0.00000000	          5.07533546	          0.00000000	          0.00000000	          0.00000000	          0.00000000	          0.16353294	          0.88350949	         -0.02510095	          0.00000000	          0.00000000	          0.00000000	          0.00000000	          0.00000000	          0.00000000	          0.66195555	          0.90706845	         -0.01227553	          0.00000000	          0.00000000	          0.00000000	
3.235	         32.66227922	        354.06563605	        -18.28393847	          0.23153636	          0.00000000	          0.29071446	          0.00000000	         -4.23710238	          0.00000000	        -42.79531974	        439.47947220	        -14.46293604	          0.57938984	          0.00000000	          0.27513483	          0.00000000	          5.07717679	          0.00000000	          0.00000000	          0.00000000	          0.00000000	          0.16359994	          0.88434490	         -0.02529533	          0.00000000	          0.00000000	          0.00000000	          0.00000000	          0.00000000	          0.00000000	          0.66198136	          0.90799914	         -0.01252437	          0.00000000	          0.00000000	          0.00000000	
3.236	         32.70397345	        354.41398179	        -18.30514071	          0.23155140	          0.00000000	          0.29081988	          0.00000000	         -4.24334078	          0.00000000	        -42.78998973	        439.45521629	        -14.52465540	          0.57938095	          0.00000000	          0.27520010	          0.00000000	          5.07914701	          0.00000000	          0.00000000	          0.00000000	          0.00000000	          0.16366669	          0.88517822	         -0.02549106	          0.00000000	          0.00000000	          0.00000000	          0.00000000	          0.00000000	          0.00000000	          0.66200729	          0.90892763	         -0.01277543	          0.00000000	          0.00000000	          0.00000000	
3.237	         32.74692816	        354.76552206	        -18.32641890	          0.23156609	          0.00000000	          0.29092345	          0.00000000	         -4.24964745	          0.00000000	        -42.78405585	        439.42954785	        -14.58387344	          0.57937245	          0.00000000	          0.27526195	          0.00000000	          5.08125157	          0.00000000	          0.00000000	          0.00000000	          0.00000000	          0.16373314	          0.88600954	         -0.02568815	          0.00000000	          0.00000000	          0.00000000	          0.00000000	          0.00000000	          0.00000000	          0.66203333	          0.90985388	         -0.01302869	          0.00000000	          0.00000000	          0.00000000	
